<svg width="18" height="18" viewBox="0 0 18 18" fill="none" xmlns="http://www.w3.org/2000/svg">
<path d="M0.90036 11.0085C0.900296 11.9648 1.27293 12.8645 1.94921 13.5407L2.01992 13.47L1.94921 13.5407C2.62552 14.217 3.52514 14.5897 4.48151 14.5897C6.45623 14.5897 8.06266 12.9833 8.06266 11.0085C8.06266 10.9054 8.03459 10.8043 7.9816 10.7159L7.9816 10.7159L5.70237 6.91675L12.6468 8.84572L10.0187 13.2263C10.0187 13.2263 10.0187 13.2263 10.0187 13.2263C9.96564 13.3147 9.93762 13.4158 9.93762 13.5189C9.93762 15.4936 11.544 17.1 13.5188 17.1C15.4935 17.1 17.0999 15.4936 17.0999 13.5189C17.0999 13.4158 17.0719 13.3146 17.0189 13.2263L16.9331 13.2777L17.0189 13.2263L14.7397 9.42704L16.379 9.88242C16.4298 9.89653 16.4811 9.90329 16.5315 9.90329C16.7806 9.90329 17.0093 9.73851 17.0793 9.48666L17.0793 9.48663C17.1633 9.184 16.9862 8.87049 16.6835 8.78643L9.56887 6.81021V1.57819C9.56887 1.43938 9.54381 1.27339 9.45924 1.13881C9.37047 0.99753 9.22132 0.9 9.00012 0.9C8.87752 0.9 8.77543 0.930984 8.6931 0.987249C8.61142 1.04308 8.55559 1.1194 8.51759 1.20028C8.44311 1.35882 8.43137 1.54746 8.43137 1.67977V6.49424L1.62123 4.60255C1.31862 4.51844 1.00507 4.69568 0.920979 4.99832L0.920973 4.99834C0.836956 5.30098 1.01409 5.61448 1.31678 5.69855C1.31678 5.69855 1.31679 5.69855 1.31679 5.69855L3.60943 6.3354L0.981377 10.7159C0.981371 10.7159 0.981365 10.7159 0.981359 10.7159C0.928327 10.8043 0.900299 10.9054 0.90036 11.0085ZM0.90036 11.0085L1.00036 11.0085L0.90036 11.0085C0.90036 11.0085 0.90036 11.0085 0.90036 11.0085ZM15.8951 14.0876C15.6381 15.1616 14.6702 15.9625 13.5188 15.9625C12.3674 15.9625 11.3995 15.1616 11.1425 14.0876H15.8951ZM11.5108 12.9501L13.5188 9.60316L15.5267 12.9501H11.5108ZM6.48948 10.4397H2.47347L4.48151 7.09284L6.48948 10.4397ZM4.48145 13.4522C3.33007 13.4522 2.36217 12.6513 2.10507 11.5773H6.85785C6.60075 12.6513 5.6328 13.4522 4.48145 13.4522Z" fill="#003466" stroke="#003466" stroke-width="0.2"/>
</svg>
